HIERARCHY
ROOT Hips
{
	OFFSET 0.000000 0.000000 0.000000
	CHANNELS 6 Xposition Yposition Zposition Zrotation Yrotation Xrotation 
	JOINT LHipJoint
	{
		OFFSET 0.000000 0.000000 0.000000
		CHANNELS 3 Zrotation Yrotation Xrotation
		JOINT LeftUpLeg
		{
			OFFSET 1.363060 -1.794630 0.839290
			CHANNELS 3 Zrotation Yrotation Xrotation
			JOINT LeftLeg
			{
				OFFSET 2.448110 -6.726130 0.000000
				CHANNELS 3 Zrotation Yrotation Xrotation
				JOINT LeftFoot
				{
					OFFSET 2.562200 -7.039590 0.000000
					CHANNELS 3 Zrotation Yrotation Xrotation
					JOINT LeftToeBase
					{
						OFFSET 0.157640 -0.433110 2.322550
						CHANNELS 3 Zrotation Yrotation Xrotation
						End Site
						{
							OFFSET 0.000000 0.000000 0.000000
						}
					}
				}
			}
		}
	}
	JOINT RHipJoint
	{
		OFFSET 0.000000 0.000000 0.000000
		CHANNELS 3 Zrotation Yrotation Xrotation
		JOINT RightUpLeg
		{
			OFFSET -1.305520 -1.794630 0.839290
			CHANNELS 3 Zrotation Yrotation Xrotation
			JOINT RightLeg
			{
				OFFSET -2.542530 -6.985550 0.000000
				CHANNELS 3 Zrotation Yrotation Xrotation
				JOINT RightFoot
				{
					OFFSET -2.568260 -7.056230 0.000000
					CHANNELS 3 Zrotation Yrotation Xrotation
					JOINT RightToeBase
					{
						OFFSET -0.164730 -0.452590 2.363150
						CHANNELS 3 Zrotation Yrotation Xrotation
						End Site
						{
							OFFSET 0.000000 0.000000 0.000000
						}
					}
				}
			}
		}
	}
	JOINT LowerBack
	{
		OFFSET 0.000000 0.000000 0.000000
		CHANNELS 3 Zrotation Yrotation Xrotation
		JOINT Spine
		{
			OFFSET 0.028270 2.035590 -0.193380
			CHANNELS 3 Zrotation Yrotation Xrotation
			JOINT Spine1
			{
				OFFSET 0.056720 2.048850 -0.042750
				CHANNELS 3 Zrotation Yrotation Xrotation
				JOINT Neck
				{
					OFFSET 0.000000 0.000000 0.000000
					CHANNELS 3 Zrotation Yrotation Xrotation
					JOINT Neck1
					{
						OFFSET -0.054170 1.746240 0.172020
						CHANNELS 3 Zrotation Yrotation Xrotation
						JOINT Head
						{
							OFFSET 0.104070 1.761360 -0.123970
							CHANNELS 3 Zrotation Yrotation Xrotation
							End Site
							{
								OFFSET 0.000000 0.000000 0.000000
							}
						}
					}
				}
				JOINT LeftShoulder
				{
					OFFSET 0.000000 0.000000 0.000000
					CHANNELS 3 Zrotation Yrotation Xrotation
					JOINT LeftArm
					{
						OFFSET 3.362410 1.200890 -0.311210
						CHANNELS 3 Zrotation Yrotation Xrotation
						JOINT LeftForeArm
						{
							OFFSET 4.983000 -0.000000 -0.000000
							CHANNELS 3 Zrotation Yrotation Xrotation
							JOINT LeftHand
							{
								OFFSET 3.483560 -0.000000 -0.000000
								CHANNELS 3 Zrotation Yrotation Xrotation
								JOINT LeftFingerBase
								{
									OFFSET 0.000000 0.000000 0.000000
									CHANNELS 3 Zrotation Yrotation Xrotation
									JOINT LeftHandIndex1
									{
										OFFSET 0.715260 -0.000000 -0.000000
										CHANNELS 3 Zrotation Yrotation Xrotation
										End Site
										{
											OFFSET 0.000000 0.000000 0.000000
										}
									}
								}
								JOINT LThumb
								{
									OFFSET 0.000000 0.000000 0.000000
									CHANNELS 3 Zrotation Yrotation Xrotation
									End Site
									{
										OFFSET 0.000000 0.000000 0.000000
									}
								}
							}
						}
					}
				}
				JOINT RightShoulder
				{
					OFFSET 0.000000 0.000000 0.000000
					CHANNELS 3 Zrotation Yrotation Xrotation
					JOINT RightArm
					{
						OFFSET -3.136600 1.374050 -0.404650
						CHANNELS 3 Zrotation Yrotation Xrotation
						JOINT RightForeArm
						{
							OFFSET -5.241900 -0.000000 -0.000000
							CHANNELS 3 Zrotation Yrotation Xrotation
							JOINT RightHand
							{
								OFFSET -3.444170 -0.000000 -0.000000
								CHANNELS 3 Zrotation Yrotation Xrotation
								JOINT RightFingerBase
								{
									OFFSET 0.000000 0.000000 0.000000
									CHANNELS 3 Zrotation Yrotation Xrotation
									JOINT RightHandIndex1
									{
										OFFSET -0.622530 -0.000000 -0.000000
										CHANNELS 3 Zrotation Yrotation Xrotation
										End Site
										{
											OFFSET 0.000000 0.000000 0.000000
										}
									}
								}
								JOINT RThumb
								{
									OFFSET 0.000000 0.000000 0.000000
									CHANNELS 3 Zrotation Yrotation Xrotation
									End Site
									{
										OFFSET 0.000000 0.000000 0.000000
									}
								}
							}
						}
					}
				}
			}
		}
	}
}
MOTION
Frames: 4
Frame Time: 0.008333
0.290433 18.770292 0.342584 -152.806356 25.945519 -157.377158 0.624757 1.572644 1.661590 1.468067 -12.554573 -12.239829 2.365573 10.114928 27.587080 170.843559 -37.190825 -28.714007 2.681300 -10.160300 -29.497600 -4.715285 -0.958330 -3.392927 -37.325363 36.134138 -34.385681 -3.491200 -12.205834 23.955390 -179.406639 50.503442 -49.448021 -10.033600 -17.428700 59.600600 15.029091 -1.749447 0.559189 3.063862 -1.253645 -6.072043 6.165298 -0.440963 -6.587332 -11.806007 -25.368713 -10.921058 5.177203 -32.860951 11.826921 -0.024600 -14.347600 13.796000 -9.767072 -10.496405 4.728095 5.668564 -9.577385 11.625183 57.591156 -48.312357 -38.327497 7.651273 -4.779802 26.628198 52.361563 4.407418 6.586900 -7.125000 0.000000 0.000000 14.496800 39.172600 -2.134100 11.242046 9.796435 6.014730 5.498314 -9.879326 -15.005198 -10.887801 15.656933 -3.241702 -1.787125 1.301292 15.661630 -11.412791 17.206552 -2.680100 7.125000 0.000000 0.000000 12.275700 -13.494600 9.292500 
0.304089 19.015778 0.240325 -153.196048 28.479223 -157.325644 0.376323 1.778990 2.081122 0.314240 -11.843833 -10.747077 1.655268 9.276982 25.547245 170.040655 -37.283706 -25.680277 2.396100 -9.646600 -27.839600 -4.836140 -1.166455 -3.364250 -37.121255 35.267332 -33.392689 -3.560240 -11.917669 23.778750 -177.957897 51.140466 -46.657330 -9.955400 -17.384700 59.339100 15.387124 -1.839148 -0.231836 3.236840 -1.431484 -6.240622 6.659959 -0.440234 -6.948425 -12.958313 -24.809608 -10.453928 4.324776 -31.948879 12.563158 -0.167300 -14.038400 13.905900 -9.556445 -10.253485 4.712286 7.261596 -7.671092 14.075174 52.773823 -46.527389 -34.000763 7.467690 -4.725374 26.917364 53.258088 3.606897 5.885200 -7.125000 0.000000 0.000000 15.245500 37.964300 -2.716900 11.197914 9.333772 6.006340 2.256635 -11.230784 -13.425136 -9.308199 13.578644 -2.514239 -1.468545 1.165017 16.940026 -7.839182 12.015366 -1.205400 7.125000 0.000000 0.000000 14.694800 -18.738200 9.512300 
0.344412 19.274813 0.148926 -153.994832 30.713516 -157.286049 0.199798 1.910784 2.385699 -0.887556 -11.471808 -9.618914 0.993673 8.507353 23.637268 169.458588 -37.143807 -22.802810 1.688400 -8.184500 -23.275800 -4.929873 -1.435872 -3.446256 -37.178638 34.462362 -32.096241 -3.719005 -11.637887 23.519000 -178.190046 50.476760 -47.315942 -9.971600 -17.393900 59.393500 15.918376 -1.793829 -1.984016 3.225254 -1.817546 -6.234137 6.060950 -0.667532 -6.119344 -13.504892 -24.448644 -10.721608 3.810549 -31.456379 13.240731 -0.283300 -13.801600 14.278600 -9.297120 -9.968248 4.647578 9.639154 -6.619346 15.595883 48.827839 -45.149108 -30.360057 7.216426 -4.581506 28.130138 52.884648 4.609864 6.616400 -7.125000 0.000000 0.000000 15.303500 39.003900 -2.324900 11.025666 8.982923 5.945464 0.140256 -11.710937 -17.512635 -7.479727 11.065159 -1.799292 -1.094083 1.074806 22.200214 -4.587816 6.683141 -0.337600 7.125000 0.000000 0.000000 17.264600 -23.866600 9.211900 
0.400004 19.551375 0.066237 -154.975469 32.838675 -157.208475 0.046112 2.038819 2.653641 -1.978197 -11.513033 -8.785613 0.409890 7.811660 21.852427 169.067022 -36.921420 -20.350255 0.839300 -5.843900 -16.332100 -4.999226 -1.740862 -3.584944 -37.567341 34.169217 -30.655306 -3.945211 -11.383124 23.175806 -179.848517 49.115438 -51.034409 -10.041100 -17.432900 59.625800 16.182136 -1.555975 -3.537397 3.125129 -1.863217 -6.289893 5.280502 -0.756007 -5.624520 -13.292799 -24.447212 -11.488267 2.968651 -31.688043 14.078225 -0.846800 -13.722400 14.749300 -8.965453 -9.706264 4.400254 12.076645 -5.847428 18.016457 43.526956 -43.107996 -25.439309 6.853827 -4.202519 29.026536 53.194599 5.813397 7.634100 -7.125000 0.000000 0.000000 16.174800 40.232000 -1.960200 10.794301 8.734066 5.845579 -1.375597 -13.101893 -23.454168 -6.285491 9.162616 -1.464411 -1.016107 1.062627 28.686819 -1.392657 6.212603 0.001000 7.125000 0.000000 0.000000 19.568100 -24.183200 10.431100 
